<?xml version="1.0" encoding="UTF-8"?><svg id="Layer_1" xmlns="http://www.w3.org/2000/svg" xmlns:xlink="http://www.w3.org/1999/xlink" viewBox="0 0 352.605 535.382"><defs><style>.cls-1{fill:#00252e;}.cls-1,.cls-2,.cls-3,.cls-4,.cls-5,.cls-6,.cls-7,.cls-8,.cls-9,.cls-10,.cls-11,.cls-12,.cls-13,.cls-14{stroke-width:0px;}.cls-1,.cls-4,.cls-13{fill-rule:evenodd;}.cls-2{fill:url(#linear-gradient);}.cls-3{fill:url(#linear-gradient-6);}.cls-6{fill:url(#linear-gradient-5);}.cls-7{fill:#fff;}.cls-8{fill:url(#linear-gradient-2);}.cls-9{fill:url(#linear-gradient-7);}.cls-10{fill:url(#linear-gradient-3);}.cls-11{fill:#e1e8ee;}.cls-15{filter:url(#h);}.cls-12{fill:url(#linear-gradient-8);}.cls-13{fill:#d8d8d8;}.cls-16{filter:url(#j);}.cls-14{fill:url(#linear-gradient-4);}</style><filter id="h" x="-4.2%" y="-2.6%" width="108.4%" height="105.3%"><feOffset in="SourceAlpha" result="shadowOffsetOuter1"/><feGaussianBlur in="shadowOffsetOuter1" result="shadowBlurOuter1" stdDeviation="4.5"/></filter><filter id="j" x="-4.2%" y="-24.7%" width="108.4%" height="149.4%"><feOffset in="SourceAlpha" result="shadowOffsetOuter1"/><feGaussianBlur in="shadowOffsetOuter1" result="shadowBlurOuter1" stdDeviation="4.5"/></filter><linearGradient id="linear-gradient" x1="-1109.724" y1="434.243" x2="-1109.112" y2="432.826" gradientTransform="translate(33345.452 13139.847) scale(30 -30)" gradientUnits="userSpaceOnUse"><stop offset="0" stop-color="#fad961"/><stop offset="1" stop-color="#ff52c1"/></linearGradient><linearGradient id="linear-gradient-2" x1="-1109.724" y1="434.243" x2="-1109.112" y2="432.826" gradientTransform="translate(33345.452 13277.847) scale(30 -30)" gradientUnits="userSpaceOnUse"><stop offset="0" stop-color="#fad961"/><stop offset="1" stop-color="#ff52c1"/></linearGradient><linearGradient id="linear-gradient-3" x1="-1109.405" y1="434.005" x2="-1109.405" y2="433.005" gradientTransform="translate(33345.452 13185.847) scale(30 -30)" gradientUnits="userSpaceOnUse"><stop offset="0" stop-color="#00c7fa"/><stop offset="1" stop-color="#007dfa"/></linearGradient><linearGradient id="linear-gradient-4" x1="-1109.405" y1="434.005" x2="-1109.405" y2="433.005" gradientTransform="translate(33345.452 13323.847) scale(30 -30)" gradientUnits="userSpaceOnUse"><stop offset="0" stop-color="#00c7fa"/><stop offset="1" stop-color="#007dfa"/></linearGradient><linearGradient id="linear-gradient-5" x1="-1109.665" y1="433.978" x2="-1109.053" y2="432.865" gradientTransform="translate(33345.452 13231.847) scale(30 -30)" gradientUnits="userSpaceOnUse"><stop offset="0" stop-color="#ff52c1"/><stop offset="1" stop-color="#9952ff"/></linearGradient><linearGradient id="linear-gradient-6" x1="-1109.665" y1="433.978" x2="-1109.053" y2="432.865" gradientTransform="translate(33345.452 13369.847) scale(30 -30)" gradientUnits="userSpaceOnUse"><stop offset="0" stop-color="#ff52c1"/><stop offset="1" stop-color="#9952ff"/></linearGradient><linearGradient id="linear-gradient-7" x1="-1109.724" y1="434.243" x2="-1109.112" y2="432.826" gradientTransform="translate(33345.452 13415.847) scale(30 -30)" gradientUnits="userSpaceOnUse"><stop offset="0" stop-color="#fad961"/><stop offset="1" stop-color="#ff52c1"/></linearGradient><linearGradient id="linear-gradient-8" x1="-1109.405" y1="434.005" x2="-1109.405" y2="433.005" gradientTransform="translate(33345.452 13461.847) scale(30 -30)" gradientUnits="userSpaceOnUse"><stop offset="0" stop-color="#00c7fa"/><stop offset="1" stop-color="#007dfa"/></linearGradient></defs><g class="cls-15"><rect id="i" class="cls-5" x="16.303" y="11.691" width="320" height="512" rx="17.067" ry="17.067"/></g><rect id="i-2" class="cls-7" x="16.303" y="11.691" width="320" height="512" rx="17.067" ry="17.067"/><g class="cls-16"><path id="k" class="cls-4" d="m33.37,11.691h285.866c9.427,0,17.067,7.641,17.067,17.067v37.546H16.303V28.758c0-9.427,7.641-17.067,17.067-17.067Z"/></g><path id="k-2" class="cls-1" d="m33.37,11.691h285.866c9.427,0,17.067,7.641,17.067,17.067v37.546H16.303V28.758c0-9.427,7.641-17.067,17.067-17.067Z"/><rect class="cls-11" x="48.436" y="30.464" width="104" height="20.48" rx="4.267" ry="4.267"/><path class="cls-13" d="m276.57,32.171h23.893c.943,0,1.707.764,1.707,1.707h0c0,.942-.764,1.707-1.707,1.707h-23.893c-.943,0-1.707-.764-1.707-1.707h0c0-.942.764-1.707,1.707-1.707Z"/><path class="cls-13" d="m276.57,38.998h23.893c.943,0,1.707.764,1.707,1.707h0c0,.942-.764,1.706-1.707,1.706h-23.893c-.943,0-1.707-.764-1.707-1.707h0c0-.942.764-1.706,1.707-1.706Z"/><path class="cls-13" d="m276.57,45.824h23.893c.943,0,1.707.764,1.707,1.707h0c0,.942-.764,1.707-1.707,1.707h-23.893c-.943,0-1.707-.764-1.707-1.707h0c0-.942.764-1.707,1.707-1.707Z"/><circle class="cls-2" cx="63.303" cy="134.691" r="15"/><rect class="cls-11" x="94.303" y="122.691" width="57.5" height="5.333" rx=".92" ry=".92"/><rect class="cls-11" x="94.303" y="133.358" width="200" height="2.667" rx=".92" ry=".92"/><rect class="cls-11" x="94.303" y="138.691" width="183.333" height="2.667" rx=".92" ry=".92"/><rect class="cls-11" x="94.303" y="144.024" width="166.667" height="2.667" rx=".92" ry=".92"/><circle class="cls-8" cx="63.303" cy="272.691" r="15"/><rect class="cls-11" x="94.303" y="260.691" width="57.5" height="5.333" rx=".92" ry=".92"/><rect class="cls-11" x="94.303" y="271.358" width="200" height="2.667" rx=".92" ry=".92"/><rect class="cls-11" x="94.303" y="276.691" width="183.333" height="2.667" rx=".92" ry=".92"/><rect class="cls-11" x="94.303" y="282.024" width="166.667" height="2.667" rx=".92" ry=".92"/><rect class="cls-11" x="94.303" y="168.691" width="57.5" height="5.333" rx=".92" ry=".92"/><rect class="cls-11" x="94.303" y="179.358" width="200" height="2.667" rx=".92" ry=".92"/><rect class="cls-11" x="94.303" y="184.691" width="183.333" height="2.667" rx=".92" ry=".92"/><rect class="cls-11" x="94.303" y="190.024" width="166.667" height="2.667" rx=".92" ry=".92"/><circle class="cls-10" cx="63.303" cy="180.691" r="15"/><rect class="cls-11" x="94.303" y="306.691" width="57.5" height="5.333" rx=".92" ry=".92"/><rect class="cls-11" x="94.303" y="317.358" width="200" height="2.667" rx=".92" ry=".92"/><rect class="cls-11" x="94.303" y="322.691" width="183.333" height="2.667" rx=".92" ry=".92"/><rect class="cls-11" x="94.303" y="328.024" width="166.667" height="2.667" rx=".92" ry=".92"/><circle class="cls-14" cx="63.303" cy="318.691" r="15"/><rect class="cls-11" x="94.303" y="214.691" width="57.5" height="5.333" rx=".92" ry=".92"/><rect class="cls-11" x="94.303" y="225.358" width="200" height="2.667" rx=".92" ry=".92"/><rect class="cls-11" x="94.303" y="230.691" width="183.333" height="2.667" rx=".92" ry=".92"/><rect class="cls-11" x="94.303" y="236.024" width="166.667" height="2.667" rx=".92" ry=".92"/><circle class="cls-6" cx="63.303" cy="226.691" r="15"/><rect class="cls-11" x="94.303" y="352.691" width="57.5" height="5.333" rx=".92" ry=".92"/><rect class="cls-11" x="94.303" y="363.358" width="200" height="2.667" rx=".92" ry=".92"/><rect class="cls-11" x="94.303" y="368.691" width="183.333" height="2.667" rx=".92" ry=".92"/><rect class="cls-11" x="94.303" y="374.024" width="166.667" height="2.667" rx=".92" ry=".92"/><circle class="cls-3" cx="63.303" cy="364.691" r="15"/><circle class="cls-9" cx="63.303" cy="410.691" r="15"/><rect class="cls-11" x="94.303" y="398.691" width="57.5" height="5.333" rx=".92" ry=".92"/><rect class="cls-11" x="94.303" y="409.358" width="200" height="2.667" rx=".92" ry=".92"/><rect class="cls-11" x="94.303" y="414.691" width="183.333" height="2.667" rx=".92" ry=".92"/><rect class="cls-11" x="94.303" y="420.024" width="166.667" height="2.667" rx=".92" ry=".92"/><rect class="cls-11" x="94.303" y="444.691" width="57.5" height="5.333" rx=".92" ry=".92"/><rect class="cls-11" x="94.303" y="455.358" width="200" height="2.667" rx=".92" ry=".92"/><rect class="cls-11" x="94.303" y="460.691" width="183.333" height="2.667" rx=".92" ry=".92"/><rect class="cls-11" x="94.303" y="466.024" width="166.667" height="2.667" rx=".92" ry=".92"/><circle class="cls-12" cx="63.303" cy="456.691" r="15"/></svg>