<?xml version="1.0" encoding="UTF-8"?><svg id="Layer_1" xmlns="http://www.w3.org/2000/svg" xmlns:xlink="http://www.w3.org/1999/xlink" viewBox="0 0 979.968 631.688"><defs><style>.cls-1{fill:#00252e;}.cls-1,.cls-2,.cls-3,.cls-4,.cls-5,.cls-6,.cls-7,.cls-8,.cls-9,.cls-10{stroke-width:0px;}.cls-1,.cls-3,.cls-10{fill-rule:evenodd;}.cls-2{fill:url(#linear-gradient);}.cls-11{filter:url(#a);}.cls-5{fill:#fff;}.cls-6{fill:url(#linear-gradient-2);}.cls-7{fill:url(#linear-gradient-3);}.cls-8{fill:#e1e8ee;}.cls-9{fill:#a7b9c8;}.cls-10{fill:#d8d8d8;}.cls-12{filter:url(#c);}</style><filter id="a" x="-1.6%" y="-2.5%" width="103.1%" height="105%"><feOffset in="SourceAlpha" result="shadowOffsetOuter1"/><feGaussianBlur in="shadowOffsetOuter1" result="shadowBlurOuter1" stdDeviation="5"/></filter><filter id="c" x="-1.6%" y="-23.4%" width="103.1%" height="146.9%"><feOffset in="SourceAlpha" result="shadowOffsetOuter1"/><feGaussianBlur in="shadowOffsetOuter1" result="shadowBlurOuter1" stdDeviation="5"/></filter><linearGradient id="linear-gradient" x1="-437.215" y1="635.281" x2="-436.603" y2="633.864" gradientTransform="translate(42072 61118) scale(96 -96)" gradientUnits="userSpaceOnUse"><stop offset="0" stop-color="#fad961"/><stop offset="1" stop-color="#ff52c1"/></linearGradient><linearGradient id="linear-gradient-2" x1="-436.589" y1="635.113" x2="-436.589" y2="634.113" gradientTransform="translate(39420 57450) scale(90 -90)" gradientUnits="userSpaceOnUse"><stop offset="0" stop-color="#00c7fa"/><stop offset="1" stop-color="#007dfa"/></linearGradient><linearGradient id="linear-gradient-3" x1="-436.849" y1="635.085" x2="-436.237" y2="633.973" gradientTransform="translate(39420 57593) scale(90 -90)" gradientUnits="userSpaceOnUse"><stop offset="0" stop-color="#ff52c1"/><stop offset="1" stop-color="#9952ff"/></linearGradient></defs><g class="cls-11"><rect id="b" class="cls-4" x="9.984" y="15.844" width="960" height="600" rx="20" ry="20"/></g><rect id="b-2" class="cls-5" x="9.984" y="15.844" width="960" height="600" rx="20" ry="20"/><g class="cls-12"><path id="d" class="cls-3" d="m29.984,15.844h920c11.046,0,20,8.954,20,20v44H9.984v-44c0-11.046,8.954-20,20-20Z"/></g><path id="d-2" class="cls-1" d="m29.984,15.844h920c11.046,0,20,8.954,20,20v44H9.984v-44c0-11.046,8.954-20,20-20Z"/><rect class="cls-8" x="81.984" y="35.844" width="200" height="24" rx="5" ry="5"/><path class="cls-10" d="m875.984,37.844h28c1.105,0,2,.895,2,2h0c0,1.105-.895,2-2,2h-28c-1.105,0-2-.895-2-2h0c0-1.105.895-2,2-2Z"/><path class="cls-10" d="m875.984,45.844h28c1.105,0,2,.895,2,2h0c0,1.105-.895,2-2,2h-28c-1.105,0-2-.895-2-2h0c0-1.105.895-2,2-2Z"/><path class="cls-10" d="m875.984,53.844h28c1.105,0,2,.895,2,2h0c0,1.105-.895,2-2,2h-28c-1.105,0-2-.895-2-2h0c0-1.105.895-2,2-2Z"/><circle class="cls-2" cx="129.984" cy="201.844" r="48"/><rect class="cls-8" x="233.984" y="165.844" width="115" height="16" rx="3" ry="3"/><rect class="cls-8" x="233.984" y="197.844" width="400" height="8" rx="3" ry="3"/><rect class="cls-8" x="233.984" y="213.844" width="366.667" height="8" rx="3" ry="3"/><rect class="cls-8" x="233.984" y="229.844" width="333.333" height="8" rx="3" ry="3"/><circle class="cls-9" cx="693.984" cy="201.844" r="12"/><circle class="cls-9" cx="757.984" cy="201.844" r="12"/><circle class="cls-9" cx="725.984" cy="201.844" r="12"/><circle class="cls-9" cx="789.984" cy="201.844" r="12"/><circle class="cls-9" cx="821.984" cy="201.844" r="12"/><circle class="cls-6" cx="126.984" cy="334.844" r="45"/><rect class="cls-8" x="230.984" y="298.844" width="115" height="16" rx="3" ry="3"/><rect class="cls-8" x="230.984" y="330.844" width="400" height="8" rx="3" ry="3"/><rect class="cls-8" x="230.984" y="346.844" width="366.667" height="8" rx="3" ry="3"/><rect class="cls-8" x="230.984" y="362.844" width="333.333" height="8" rx="3" ry="3"/><circle class="cls-9" cx="690.984" cy="334.844" r="12"/><circle class="cls-9" cx="754.984" cy="334.844" r="12"/><circle class="cls-9" cx="722.984" cy="334.844" r="12"/><circle class="cls-7" cx="126.984" cy="477.844" r="45"/><rect class="cls-8" x="230.984" y="441.844" width="115" height="16" rx="3" ry="3"/><rect class="cls-8" x="230.984" y="473.844" width="400" height="8" rx="3" ry="3"/><rect class="cls-8" x="230.984" y="489.844" width="366.667" height="8" rx="3" ry="3"/><rect class="cls-8" x="230.984" y="505.844" width="333.333" height="8" rx="3" ry="3"/><circle class="cls-9" cx="690.984" cy="477.844" r="12"/><circle class="cls-9" cx="754.984" cy="477.844" r="12"/><circle class="cls-9" cx="722.984" cy="477.844" r="12"/><circle class="cls-9" cx="786.984" cy="477.844" r="12"/></svg>